Coordinates
version=1
nRows=11
nColumns=20
inDegrees=yes

Units are S.I. units (second, meters, Newtons, ...)
Angles are in degrees.

endheader
time	Th_rotX	Th_rotY	Th_rotZ	Th_transX	Th_transY	Th_transZ	Clav_rotZ_right	Clav_rotY_right	Clav_rotX_right	Scap_rotZ_right	Scap_rotY_right	Scap_rotX_right	Hum_rotZ_right	Hum_rotY_right	Hum_rotZZ_right	Elb_flex_right	Elb_ProSup_right	wrist_dev_r	wrist_flex_r
      0.50000000	     -4.68510944	     -3.20825121	      1.76716665	      0.49919137	      1.43700489	     -0.44725275	     11.16122125	     -1.10118915	     13.17383175	    -17.40026641	      1.93585233	      8.71933485	     -0.14541430	    -33.32818086	    -70.71589820	     20.20866018	     46.40513103	     32.74074622	     -3.41331817
      0.50333333	     -4.68540002	     -3.20799895	      1.76792078	      0.49921162	      1.43699675	     -0.44725309	     11.16146482	     -1.10113832	     13.17485798	    -17.40064455	      1.93606438	      8.71959451	     -0.14581929	    -33.32806009	    -70.71599852	     20.20889524	     46.40461287	     32.74056105	     -3.41335773
      0.50666667	     -4.68527306	     -3.20799111	      1.76820438	      0.49921789	      1.43698677	     -0.44724422	     11.16185215	     -1.10124942	     13.17530581	    -17.40108123	      1.93573144	      8.71966289	     -0.14576827	    -33.32820026	    -70.71613412	     20.20884568	     46.40409304	     32.74042235	     -3.41342145
      0.51000000	     -4.68521752	     -3.20785465	      1.76832958	      0.49925103	      1.43700660	     -0.44724511	     11.16213583	     -1.10127358	     13.17556910	    -17.40149825	      1.93516174	      8.71978691	     -0.14557160	    -33.32829539	    -70.71627855	     20.20872526	     46.40358338	     32.74030469	     -3.41349060
      0.51333333	     -4.68449220	     -3.20785038	      1.76825644	      0.49928493	      1.43701660	     -0.44725999	     11.16254580	     -1.10186468	     13.17543326	    -17.40185975	      1.93398782	      8.72017829	     -0.14488980	    -33.32818022	    -70.71639685	     20.20839683	     46.40310109	     32.74022923	     -3.41356960
      0.51666667	     -4.68445448	     -3.20798601	      1.76768420	      0.49931124	      1.43704020	     -0.44724449	     11.16300260	     -1.10166654	     13.17500970	    -17.40228206	      1.93290746	      8.71979674	     -0.14434672	    -33.32875845	    -70.71662417	     20.20795738	     46.40260013	     32.74016667	     -3.41366458
      0.52000000	     -4.68278420	     -3.20794407	      1.76709579	      0.49939041	      1.43706677	     -0.44726117	     11.16384238	     -1.10298487	     13.17431448	    -17.40301897	      1.93001748	      8.72056961	     -0.14255755	    -33.32853283	    -70.71694714	     20.20706192	     46.40170220	     32.74006355	     -3.41381549
      0.52333333	     -4.68269314	     -3.20807088	      1.76636065	      0.49941575	      1.43708364	     -0.44724018	     11.16429928	     -1.10279717	     13.17377766	    -17.40344998	      1.92883641	      8.72014480	     -0.14193337	    -33.32912588	    -70.71718368	     20.20658746	     46.40124271	     32.74002118	     -3.41390486
      0.52666667	     -3.55710626	     -2.37520136	      0.60404782	      0.50502658	      1.43594109	     -0.44344587	     14.71510808	      1.23311961	     48.42315970	    -21.25635657	    -28.64788976	     -3.74628040	      0.52278714	    -33.01585411	    -71.61495412	     19.53649228	     42.17071474	     31.15216155	     -0.36037490
      0.53000000	     -3.55678436	     -2.37497760	      0.60396326	      0.50504472	      1.43594709	     -0.44342800	     14.71495135	      1.23273225	     48.42293082	    -21.25632348	    -28.64788976	     -3.74620704	      0.52310626	    -33.01584939	    -71.61519598	     19.53651338	     42.17087615	     31.15221466	     -0.36033606
      0.53333333	     -3.55587833	     -2.37459488	      0.60398299	      0.50508666	      1.43596796	     -0.44344884	     14.71473075	      1.23169472	     48.42260882	    -21.25573346	    -28.64788976	     -3.74539397	      0.52381038	    -33.01520671	    -71.61535728	     19.53649700	     42.17107339	     31.15230739	     -0.36029632
